<svg width="170" height="28" viewBox="0 0 170 28" fill="none" xmlns="http://www.w3.org/2000/svg">
<rect width="21.1771" height="21.1773" rx="3.11429" transform="matrix(0.939692 0.342023 -0.342017 0.939694 8.17163 0)" fill="#2D41AD"/>
<path d="M39.7515 14.6923H42.5675L42.2155 13.3963C41.8475 12.1643 41.5275 10.8043 41.1755 9.52427H41.1115C40.8075 10.8203 40.4555 12.1643 40.1035 13.3963L39.7515 14.6923ZM43.9115 19.5723L43.0795 16.5323H39.2395L38.4075 19.5723H36.0075L39.7995 7.73227H42.5835L46.3915 19.5723H43.9115ZM49.2442 19.7963C47.6122 19.7963 47.0362 18.7243 47.0362 17.0603V6.80427H49.3722V17.1723C49.3722 17.7003 49.6282 17.8763 49.8522 17.8763C49.9482 17.8763 50.0122 17.8763 50.1722 17.8443L50.4602 19.5883C50.1882 19.7003 49.7882 19.7963 49.2442 19.7963ZM51.5338 19.5723V10.6123H53.8698V19.5723H51.5338ZM52.7178 9.17227C51.9018 9.17227 51.3098 8.62827 51.3098 7.89227C51.3098 7.12426 51.9018 6.61226 52.7178 6.61226C53.5178 6.61226 54.1098 7.12426 54.1098 7.89227C54.1098 8.62827 53.5178 9.17227 52.7178 9.17227ZM59.5878 19.7963C57.3478 19.7963 55.2838 18.0683 55.2838 15.1083C55.2838 12.1163 57.3478 10.3883 59.5878 10.3883C61.8278 10.3883 63.8918 12.1163 63.8918 15.1083C63.8918 18.0683 61.8278 19.7963 59.5878 19.7963ZM59.5878 17.8763C60.8038 17.8763 61.4918 16.7883 61.4918 15.1083C61.4918 13.4123 60.8038 12.3083 59.5878 12.3083C58.3718 12.3083 57.6838 13.4123 57.6838 15.1083C57.6838 16.7883 58.3718 17.8763 59.5878 17.8763ZM68.137 19.7963C66.009 19.7963 65.193 18.4523 65.193 16.4363V12.4683H63.929V10.7243L65.305 10.6123L65.577 8.21227H67.545V10.6123H69.753V12.4683H67.545V16.4363C67.545 17.4603 67.961 17.9403 68.761 17.9403C69.049 17.9403 69.401 17.8443 69.641 17.7483L70.025 19.4603C69.545 19.6203 68.921 19.7963 68.137 19.7963ZM71.0264 19.5723V6.80427H73.3624V10.0203L73.2664 11.7003C73.9864 11.0283 74.8664 10.3883 76.0824 10.3883C78.0184 10.3883 78.8504 11.7323 78.8504 13.9883V19.5723H76.4984V14.2763C76.4984 12.9003 76.1144 12.4043 75.2344 12.4043C74.4984 12.4043 74.0344 12.7563 73.3624 13.4123V19.5723H71.0264ZM88.8111 19.7963C85.8191 19.7963 83.3871 17.6523 83.3871 13.7003C83.3871 9.79627 85.8991 7.50827 88.8911 7.50827C90.3951 7.50827 91.5951 8.22826 92.3631 9.02826L91.1151 10.5323C90.5231 9.95627 89.8351 9.54027 88.9391 9.54027C87.1471 9.54027 85.8031 11.0763 85.8031 13.6203C85.8031 16.1963 87.0191 17.7483 88.8911 17.7483C89.8991 17.7483 90.6991 17.2683 91.3391 16.5803L92.5871 18.0523C91.6111 19.1883 90.3471 19.7963 88.8111 19.7963ZM93.7534 19.5723V6.80427H96.0894V10.0203L95.9934 11.7003C96.7134 11.0283 97.5934 10.3883 98.8094 10.3883C100.745 10.3883 101.577 11.7323 101.577 13.9883V19.5723H99.2254V14.2763C99.2254 12.9003 98.8414 12.4043 97.9614 12.4043C97.2254 12.4043 96.7614 12.7563 96.0894 13.4123V19.5723H93.7534ZM105.646 19.7963C104.046 19.7963 102.99 18.6603 102.99 17.1403C102.99 15.2203 104.542 14.2123 108.142 13.8283C108.11 12.9483 107.726 12.2763 106.622 12.2763C105.79 12.2763 104.99 12.6443 104.158 13.1243L103.31 11.5723C104.366 10.9163 105.646 10.3883 107.054 10.3883C109.326 10.3883 110.494 11.7483 110.494 14.3403V19.5723H108.574L108.398 18.6123H108.35C107.566 19.2843 106.67 19.7963 105.646 19.7963ZM106.414 17.9563C107.086 17.9563 107.582 17.6363 108.142 17.0763V15.2683C105.966 15.5563 105.23 16.1483 105.23 16.9483C105.23 17.6523 105.726 17.9563 106.414 17.9563ZM115.325 19.7963C113.197 19.7963 112.381 18.4523 112.381 16.4363V12.4683H111.117V10.7243L112.493 10.6123L112.765 8.21227H114.733V10.6123H116.941V12.4683H114.733V16.4363C114.733 17.4603 115.149 17.9403 115.949 17.9403C116.237 17.9403 116.589 17.8443 116.829 17.7483L117.213 19.4603C116.733 19.6203 116.109 19.7963 115.325 19.7963ZM123.706 14.6923H126.522L126.17 13.3963C125.802 12.1643 125.482 10.8043 125.13 9.52427H125.066C124.762 10.8203 124.41 12.1643 124.058 13.3963L123.706 14.6923ZM127.866 19.5723L127.034 16.5323H123.194L122.362 19.5723H119.962L123.754 7.73227H126.538L130.346 19.5723H127.866ZM134.143 19.7963C131.919 19.7963 130.479 18.0363 130.479 15.1083C130.479 12.1803 132.303 10.3883 134.239 10.3883C135.247 10.3883 135.871 10.7723 136.511 11.3643L136.415 9.95627V6.80427H138.767V19.5723H136.863L136.671 18.6443H136.623C135.967 19.2843 135.071 19.7963 134.143 19.7963ZM134.751 17.8603C135.375 17.8603 135.903 17.6043 136.415 16.9323V12.9963C135.871 12.5003 135.311 12.3243 134.751 12.3243C133.743 12.3243 132.895 13.2843 132.895 15.0763C132.895 16.9323 133.567 17.8603 134.751 17.8603ZM140.739 19.5723V10.6123H142.659L142.819 11.8123H142.883C143.635 11.0283 144.467 10.3883 145.635 10.3883C146.915 10.3883 147.667 10.9643 148.099 11.9563C148.915 11.0923 149.779 10.3883 150.947 10.3883C152.851 10.3883 153.731 11.7323 153.731 13.9883V19.5723H151.379V14.2763C151.379 12.9003 150.979 12.4043 150.131 12.4043C149.619 12.4043 149.043 12.7403 148.403 13.4123V19.5723H146.051V14.2763C146.051 12.9003 145.651 12.4043 144.803 12.4043C144.291 12.4043 143.715 12.7403 143.075 13.4123V19.5723H140.739ZM155.611 19.5723V10.6123H157.947V19.5723H155.611ZM156.795 9.17227C155.979 9.17227 155.387 8.62827 155.387 7.89227C155.387 7.12426 155.979 6.61226 156.795 6.61226C157.595 6.61226 158.187 7.12426 158.187 7.89227C158.187 8.62827 157.595 9.17227 156.795 9.17227ZM159.921 19.5723V10.6123H161.841L162.001 11.7963H162.065C162.849 11.0283 163.761 10.3883 164.977 10.3883C166.913 10.3883 167.745 11.7323 167.745 13.9883V19.5723H165.393V14.2763C165.393 12.9003 165.009 12.4043 164.129 12.4043C163.393 12.4043 162.929 12.7563 162.257 13.4123V19.5723H159.921Z" fill="#2D41AD"/>
</svg>
